Coordinates
version=1
nRows=15
nColumns=34
inDegrees=yes

Units are S.I. units (second, meters, Newtons, ...)
If the header above contains a line with 'inDegrees', this indicates whether rotational values are in degrees (yes) or radians (no).

endheader
time	pelvis_tilt	pelvis_list	pelvis_rotation	pelvis_tx	pelvis_ty	pelvis_tz	hip_flexion_r	hip_adduction_r	hip_rotation_r	knee_angle_r	ankle_angle_r	subtalar_angle_r	mtp_angle_r	hip_flexion_l	hip_adduction_l	hip_rotation_l	knee_angle_l	ankle_angle_l	subtalar_angle_l	mtp_angle_l	lumbar_extension	lumbar_bending	lumbar_rotation	arm_flex_r	arm_add_r	arm_rot_r	elbow_flex_r	pro_sup_r	arm_flex_l	arm_add_l	arm_rot_l	elbow_flex_l	pro_sup_l
     28.66666670	     59.69408624	    -22.28189307	    170.63719204	     -0.06610242	      0.96565217	     -0.33060856	     31.83609460	     -0.89669059	     -3.69438397	     49.76817627	      0.00000000	      0.00000000	      0.00000000	     29.93379074	     -4.99927917	     -3.95994033	     47.52184984	      0.00000000	      0.00000000	      0.00000000	    -29.35361413	      0.76671569	     -0.51499054	      0.00000000	      0.00000000	      0.00000000	      0.00000000	      0.00000000	      0.00000000	      0.00000000	      0.00000000	      0.00000000	      0.00000000
     28.68333330	     60.44609597	    -22.18445037	    171.16942698	     -0.06588940	      0.96383867	     -0.33000186	     32.54780234	     -0.85503824	     -4.04299950	     49.87496529	      0.00000000	      0.00000000	      0.00000000	     30.78656893	     -5.10294597	     -3.57888780	     47.83103150	      0.00000000	      0.00000000	      0.00000000	    -28.73104810	      1.12417884	     -0.63926541	      0.00000000	      0.00000000	      0.00000000	      0.00000000	      0.00000000	      0.00000000	      0.00000000	      0.00000000	      0.00000000	      0.00000000
     28.70000000	     60.58397837	    -22.16927040	    171.26895650	     -0.06627274	      0.96278071	     -0.33029498	     32.63674128	     -0.83457907	     -4.05233960	     49.83620011	      0.00000000	      0.00000000	      0.00000000	     30.83135109	     -5.15866832	     -3.56490940	     47.76852143	      0.00000000	      0.00000000	      0.00000000	    -28.79960883	      1.10473492	     -0.65404701	      0.00000000	      0.00000000	      0.00000000	      0.00000000	      0.00000000	      0.00000000	      0.00000000	      0.00000000	      0.00000000	      0.00000000
     28.71666670	     61.30454749	    -22.05170934	    171.72813711	     -0.06590761	      0.96103793	     -0.32984863	     33.29660775	     -0.69751390	     -4.26889085	     49.93296946	      0.00000000	      0.00000000	      0.00000000	     31.69123027	     -5.30759871	     -3.25689522	     48.15371996	      0.00000000	      0.00000000	      0.00000000	    -28.20252173	      1.42841735	     -0.84296338	      0.00000000	      0.00000000	      0.00000000	      0.00000000	      0.00000000	      0.00000000	      0.00000000	      0.00000000	      0.00000000	      0.00000000
     28.73333330	     61.78533424	    -22.03531949	    172.04165806	     -0.06591319	      0.95952600	     -0.32982921	     33.68347317	     -0.66940942	     -4.40534769	     49.93497613	      0.00000000	      0.00000000	      0.00000000	     32.13977466	     -5.36114894	     -3.09996541	     48.18566030	      0.00000000	      0.00000000	      0.00000000	    -27.80809532	      1.54859243	     -1.00506132	      0.00000000	      0.00000000	      0.00000000	      0.00000000	      0.00000000	      0.00000000	      0.00000000	      0.00000000	      0.00000000	      0.00000000
     28.75000000	     61.84879318	    -22.05685018	    172.06445022	     -0.06627312	      0.95834793	     -0.33017443	     33.66662757	     -0.65950368	     -4.40401922	     49.95286976	      0.00000000	      0.00000000	      0.00000000	     32.12685034	     -5.37479930	     -3.09475925	     48.20148617	      0.00000000	      0.00000000	      0.00000000	    -27.82771347	      1.54576102	     -1.00703777	      0.00000000	      0.00000000	      0.00000000	      0.00000000	      0.00000000	      0.00000000	      0.00000000	      0.00000000	      0.00000000	      0.00000000
     28.76666670	     62.38601750	    -21.96852099	    172.38970466	     -0.06596940	      0.95694351	     -0.33001733	     34.15339159	     -0.50842298	     -4.50211256	     50.07592540	      0.00000000	      0.00000000	      0.00000000	     32.78276722	     -5.51306343	     -2.87794215	     48.51260390	      0.00000000	      0.00000000	      0.00000000	    -27.48501889	      1.74938888	     -1.18758797	      0.00000000	      0.00000000	      0.00000000	      0.00000000	      0.00000000	      0.00000000	      0.00000000	      0.00000000	      0.00000000	      0.00000000
     28.78333330	     62.45628563	    -22.00017272	    172.39308434	     -0.06636781	      0.95576087	     -0.33032926	     34.12418051	     -0.49947526	     -4.50252268	     50.09284205	      0.00000000	      0.00000000	      0.00000000	     32.76580668	     -5.52111943	     -2.87059441	     48.53389832	      0.00000000	      0.00000000	      0.00000000	    -27.49976010	      1.74844041	     -1.18936996	      0.00000000	      0.00000000	      0.00000000	      0.00000000	      0.00000000	      0.00000000	      0.00000000	      0.00000000	      0.00000000	      0.00000000
     28.80000000	     62.70833137	    -22.02029410	    172.41408091	     -0.06636992	      0.95434771	     -0.33052694	     34.33301452	     -0.40373144	     -4.40936770	     50.16882301	      0.00000000	      0.00000000	      0.00000000	     33.03972709	     -5.57195610	     -2.79726706	     48.79507167	      0.00000000	      0.00000000	      0.00000000	    -27.41673771	      1.75921715	     -1.32251190	      0.00000000	      0.00000000	      0.00000000	      0.00000000	      0.00000000	      0.00000000	      0.00000000	      0.00000000	      0.00000000	      0.00000000
     28.81666670	     62.79918365	    -22.05489683	    172.40467431	     -0.06695868	      0.95279925	     -0.33082888	     34.29276679	     -0.39509299	     -4.41092199	     50.18469031	      0.00000000	      0.00000000	      0.00000000	     33.01324164	     -5.57542467	     -2.79071521	     48.81782398	      0.00000000	      0.00000000	      0.00000000	    -27.43051612	      1.75997432	     -1.32437788	      0.00000000	      0.00000000	      0.00000000	      0.00000000	      0.00000000	      0.00000000	      0.00000000	      0.00000000	      0.00000000	      0.00000000
     28.83333330	     62.92568282	    -22.10891325	    172.33260434	     -0.06764107	      0.95128802	     -0.33124598	     34.29329196	     -0.38323389	     -4.39493966	     50.13518304	      0.00000000	      0.00000000	      0.00000000	     32.99498568	     -5.56932459	     -2.77236333	     48.87369501	      0.00000000	      0.00000000	      0.00000000	    -27.46433573	      1.75121488	     -1.33721240	      0.00000000	      0.00000000	      0.00000000	      0.00000000	      0.00000000	      0.00000000	      0.00000000	      0.00000000	      0.00000000	      0.00000000
     28.85000000	     63.04208706	    -22.14248923	    172.31432821	     -0.06858767	      0.94952001	     -0.33166123	     34.24004683	     -0.37494186	     -4.38919127	     50.15413695	      0.00000000	      0.00000000	      0.00000000	     32.96209389	     -5.57305191	     -2.76532247	     48.89615732	      0.00000000	      0.00000000	      0.00000000	    -27.47866512	      1.75067827	     -1.34004691	      0.00000000	      0.00000000	      0.00000000	      0.00000000	      0.00000000	      0.00000000	      0.00000000	      0.00000000	      0.00000000	      0.00000000
     28.86666670	     63.31167027	    -22.26691304	    172.07161491	     -0.06939714	      0.94748764	     -0.33253904	     34.34797143	     -0.18814012	     -3.91894531	     50.01856507	      0.00000000	      0.00000000	      0.00000000	     32.93268265	     -5.66860377	     -3.03216624	     48.80420389	      0.00000000	      0.00000000	      0.00000000	    -27.32728016	      1.57265245	     -1.49857916	      0.00000000	      0.00000000	      0.00000000	      0.00000000	      0.00000000	      0.00000000	      0.00000000	      0.00000000	      0.00000000	      0.00000000
     28.88333330	     63.45065077	    -22.30785548	    172.05723921	     -0.07046408	      0.94555899	     -0.33300310	     34.29760935	     -0.18663101	     -3.91865235	     50.02266386	      0.00000000	      0.00000000	      0.00000000	     32.87228542	     -5.67216369	     -3.02502007	     48.82206172	      0.00000000	      0.00000000	      0.00000000	    -27.34165883	      1.57461308	     -1.50007442	      0.00000000	      0.00000000	      0.00000000	      0.00000000	      0.00000000	      0.00000000	      0.00000000	      0.00000000	      0.00000000	      0.00000000
     28.90000000	     63.69549705	    -22.43317549	    171.97405012	     -0.07177677	      0.94345985	     -0.33376653	     34.19398747	     -0.16309701	     -3.76056828	     49.58319649	      0.00000000	      0.00000000	      0.00000000	     32.70815532	     -5.64766779	     -3.15207607	     48.45351997	      0.00000000	      0.00000000	      0.00000000	    -27.17673076	      1.48408238	     -1.54935092	      0.00000000	      0.00000000	      0.00000000	      0.00000000	      0.00000000	      0.00000000	      0.00000000	      0.00000000	      0.00000000	      0.00000000
